<mxfile host="app.diagrams.net" modified="2024-01-13T20:13:34.427Z" agent="Mozilla/5.0 (Macintosh; Intel Mac OS X 10_15_7) AppleWebKit/605.1.15 (KHTML, like Gecko) Version/16.2 Safari/605.1.15" version="22.1.18" etag="FngSnksDEeib-tkihnBk" type="github">
  <diagram name="Page-1" id="DTqZ_yas8xPSvTxvcCrK">
    <mxGraphModel>
      <root>
        <mxCell id="0" />
        <mxCell id="1" parent="0" />
      </root>
    </mxGraphModel>
  </diagram>
</mxfile>
